<svg width="27" height="34" viewBox="0 0 27 34" fill="none" xmlns="http://www.w3.org/2000/svg">
<path d="M1.21333 16.8667C1.21333 14.4862 1.74489 12.36 2.808 10.488C3.89422 8.59289 5.36178 7.12533 7.21067 6.08533C9.08267 5.02222 11.1742 4.49067 13.4853 4.49067C16.1893 4.49067 18.5582 5.184 20.592 6.57067C22.6258 7.95733 24.0471 9.87555 24.856 12.3253H19.2747C18.72 11.1698 17.9342 10.3031 16.9173 9.72533C15.9236 9.14755 14.768 8.85866 13.4507 8.85866C12.0409 8.85866 10.7813 9.19378 9.672 9.864C8.58578 10.5111 7.73067 11.4356 7.10667 12.6373C6.50578 13.8391 6.20533 15.2489 6.20533 16.8667C6.20533 18.4613 6.50578 19.8711 7.10667 21.096C7.73067 22.2978 8.58578 23.2338 9.672 23.904C10.7813 24.5511 12.0409 24.8747 13.4507 24.8747C14.768 24.8747 15.9236 24.5858 16.9173 24.008C17.9342 23.4071 18.72 22.5289 19.2747 21.3733H24.856C24.0471 23.8462 22.6258 25.776 20.592 27.1627C18.5813 28.5262 16.2124 29.208 13.4853 29.208C11.1742 29.208 9.08267 28.688 7.21067 27.648C5.36178 26.5849 3.89422 25.1173 2.808 23.2453C1.74489 21.3733 1.21333 19.2471 1.21333 16.8667Z" fill="#9AA7B6"/>
<circle cx="14" cy="17" r="4" fill="#9AA7B6"/>
</svg>
